<svg width="107" height="107" viewBox="0 0 107 107" fill="none" xmlns="http://www.w3.org/2000/svg">
<path fill-rule="evenodd" clip-rule="evenodd" d="M9.72727 53.5C9.72727 47.7517 10.8595 42.0597 13.0593 36.7489C15.2591 31.4382 18.4833 26.6127 22.548 22.548C26.6127 18.4833 31.4382 15.2591 36.7489 13.0593C42.0597 10.8595 47.7517 9.72727 53.5 9.72727C59.2483 9.72727 64.9403 10.8595 70.2511 13.0593C75.5619 15.2591 80.3873 18.4833 84.452 22.548C88.5167 26.6127 91.741 31.4382 93.9407 36.7489C96.1405 42.0597 97.2727 47.7517 97.2727 53.5C97.2727 65.1093 92.661 76.243 84.452 84.452C76.243 92.661 65.1093 97.2727 53.5 97.2727C41.8908 97.2727 30.757 92.661 22.548 84.452C14.339 76.243 9.72727 65.1093 9.72727 53.5ZM53.5 0C23.9534 0 0 23.9534 0 53.5C0 83.0466 23.9534 107 53.5 107C83.0466 107 107 83.0466 107 53.5C107 23.9534 83.0466 0 53.5 0ZM76.8455 36.9636C77.2287 36.4527 77.5075 35.8712 77.666 35.2525C77.8245 34.6338 77.8596 33.9899 77.7693 33.3576C77.679 32.7253 77.465 32.1171 77.1396 31.5675C76.8142 31.0179 76.3837 30.5378 75.8727 30.1545C75.3618 29.7713 74.7803 29.4925 74.1616 29.334C73.5429 29.1755 72.899 29.1404 72.2667 29.2307C71.6344 29.321 71.0261 29.535 70.4766 29.8604C69.927 30.1858 69.4469 30.6163 69.0636 31.1273L43.2475 65.5521L32.6204 54.925C31.7031 54.0391 30.4746 53.5489 29.1993 53.56C27.9241 53.571 26.7042 54.0825 25.8025 54.9843C24.9007 55.8861 24.3892 57.1059 24.3781 58.3811C24.367 59.6564 24.8573 60.8849 25.7432 61.8022L40.3341 76.3931C40.8268 76.8858 41.4196 77.2669 42.0724 77.5105C42.7251 77.7542 43.4226 77.8547 44.1176 77.8054C44.8126 77.756 45.4889 77.5579 46.1007 77.2245C46.7125 76.8911 47.2455 76.4301 47.6636 75.8727L76.8455 36.9636Z" fill="#FFFFFA"/>
</svg>
