<svg width="49" height="49" viewBox="0 0 49 49" fill="none" xmlns="http://www.w3.org/2000/svg">
<path d="M18.375 35.2188V37.2747C18.3751 38.0793 18.2167 38.8761 17.9087 39.6195C17.6008 40.3628 17.1494 41.0383 16.5804 41.6071L15.3125 42.875H33.6875L32.4196 41.6071C31.8506 41.0383 31.3992 40.3628 31.0913 39.6195C30.7833 38.8761 30.6249 38.0793 30.625 37.2747V35.2188M42.875 10.7188V30.625C42.875 31.8433 42.391 33.0118 41.5295 33.8733C40.668 34.7348 39.4996 35.2188 38.2813 35.2188H10.7188C9.50041 35.2188 8.33197 34.7348 7.47048 33.8733C6.60898 33.0118 6.125 31.8433 6.125 30.625V10.7188M42.875 10.7188C42.875 9.50041 42.391 8.33197 41.5295 7.47048C40.668 6.60898 39.4996 6.125 38.2813 6.125H10.7188C9.50041 6.125 8.33197 6.60898 7.47048 7.47048C6.60898 8.33197 6.125 9.50041 6.125 10.7188M42.875 10.7188V24.5C42.875 25.7183 42.391 26.8868 41.5295 27.7483C40.668 28.6098 39.4996 29.0938 38.2813 29.0938H10.7188C9.50041 29.0938 8.33197 28.6098 7.47048 27.7483C6.60898 26.8868 6.125 25.7183 6.125 24.5V10.7188" stroke="black" stroke-width="1.5" stroke-linecap="round" stroke-linejoin="round"/>
</svg>
