<svg width="51" height="51" viewBox="0 0 51 51" fill="none" xmlns="http://www.w3.org/2000/svg">
<path d="M27.0938 6.43874V7.64574C27.0938 8.35549 27.4083 9.02699 27.9544 9.48174L30.2239 11.373C31.1631 12.1571 31.3608 13.5192 30.6829 14.5392L29.5991 16.167C29.009 17.0514 28.1409 17.7139 27.132 18.0497L26.8281 18.1517C26.4853 18.2664 26.1734 18.4585 25.9168 18.7132C25.6602 18.9679 25.4658 19.2784 25.3486 19.6204C25.2315 19.9624 25.1947 20.3269 25.2413 20.6854C25.2878 21.0439 25.4163 21.3869 25.6169 21.6877C26.401 22.8671 25.976 24.4651 24.7095 25.0984L19.125 27.8906L20.0239 30.141C20.2052 30.598 20.2145 31.1053 20.0502 31.5688C19.886 32.0322 19.5591 32.4203 19.1305 32.6612C18.7018 32.902 18.2003 32.9791 17.719 32.8783C17.2378 32.7775 16.8094 32.5056 16.5134 32.113L15.0705 30.1877C14.826 29.8619 14.5022 29.6039 14.13 29.4383C13.7577 29.2727 13.3493 29.205 12.9435 29.2416C12.5378 29.2783 12.1481 29.418 11.8115 29.6475C11.4749 29.8771 11.2025 30.1888 11.0203 30.5532L9.56252 33.4687L8.26202 33.7939M27.0938 6.43874C23.7343 6.15682 20.3599 6.77009 17.3127 8.21236C14.2655 9.65464 11.6536 11.8768 9.74186 14.6536C7.83008 17.4305 6.6863 20.6633 6.42642 24.0246C6.16654 27.3859 6.7998 30.7562 8.26202 33.7939M27.0938 6.43874C30.4251 6.71657 33.6254 7.86488 36.3757 9.76513C39.126 11.6654 41.3302 14.2533 42.7685 17.271C44.2068 20.2887 44.829 23.6306 44.5731 26.9637C44.3172 30.2968 43.1921 33.5046 41.31 36.2674L40.9339 35.1432C40.6163 34.1913 40.0073 33.3634 39.193 32.7768C38.3787 32.1902 37.4006 31.8747 36.397 31.875H35.0625L34.374 31.1865C34.0282 30.8401 33.6049 30.5808 33.1392 30.4302C32.6734 30.2795 32.1785 30.2418 31.6953 30.32C31.2121 30.3983 30.7544 30.5903 30.3601 30.8802C29.9657 31.1702 29.6459 31.5497 29.427 31.9876L29.3505 32.1427C29.1418 32.5606 28.8486 32.9305 28.4893 33.229C28.1301 33.5275 27.7128 33.7481 27.2638 33.8767L25.16 34.476C23.9913 34.8096 23.2603 35.9677 23.46 37.1684L23.6151 38.0991C23.7851 39.1064 24.6564 39.8437 25.6764 39.8437C27.4741 39.8437 29.0721 40.9955 29.6395 42.7019L30.0964 44.0682M8.26202 33.7939C10.1669 37.7544 13.3777 40.9381 17.3542 42.8093C21.3308 44.6805 25.8305 45.1251 30.0964 44.0682M30.0964 44.0682C34.665 42.9349 38.6562 40.1586 41.3079 36.2695M33.4688 19.125C33.4688 21.029 32.6336 22.7375 31.3098 23.9062" stroke="black" stroke-width="1.5" stroke-linecap="round" stroke-linejoin="round"/>
</svg>
