<svg width="52" height="52" viewBox="0 0 52 52" fill="none" xmlns="http://www.w3.org/2000/svg">
<path d="M35.75 22.75V14.625C35.75 12.0391 34.7228 9.55919 32.8943 7.73071C31.0658 5.90223 28.5859 4.875 26 4.875C23.4141 4.875 20.9342 5.90223 19.1057 7.73071C17.2772 9.55919 16.25 12.0391 16.25 14.625V22.75M14.625 47.125H37.375C38.6679 47.125 39.9079 46.6114 40.8221 45.6971C41.7364 44.7829 42.25 43.5429 42.25 42.25V27.625C42.25 26.3321 41.7364 25.0921 40.8221 24.1779C39.9079 23.2636 38.6679 22.75 37.375 22.75H14.625C13.3321 22.75 12.0921 23.2636 11.1779 24.1779C10.2636 25.0921 9.75 26.3321 9.75 27.625V42.25C9.75 43.5429 10.2636 44.7829 11.1779 45.6971C12.0921 46.6114 13.3321 47.125 14.625 47.125Z" stroke="black" stroke-width="1.5" stroke-linecap="round" stroke-linejoin="round"/>
</svg>
