<?xml version="1.0" encoding="UTF-8"?>
<svg xmlns="http://www.w3.org/2000/svg" version="1.1" viewBox="0 0 1920 1080">
  <defs>
    <style>
      .cls-1 {
        fill: #f4aeed;
      }
    </style>
  </defs>
  <!-- Generator: Adobe Illustrator 28.6.0, SVG Export Plug-In . SVG Version: 1.2.0 Build 709)  -->
  <g>
    <g id="Lag_1">
      <g>
        <path class="cls-1" d="M186,1.5c10.9,20.3,14.4,44.8,8.9,67.2s-7.7,21.8-15.1,30.6c-8.2,9.8-18.4,17.6-28.4,25.5s-10,8.2-14.7,12.7-9.1,9.8-12.9,15.2c-7.6,10.7-13.5,22.5-18.7,34.6-10.4,24-18.6,49.7-34.8,70.6s-36.9,33.2-61,30.1c-2.9-.4-5.8-1.1-8.6-2s-5.3,4.6-1.6,5.8c24.3,8,50.9-3.5,68-21,19-19.5,28.7-45.5,38.8-70.2,5.1-12.5,10.5-24.9,17.5-36.4s7.3-11.2,11.7-16.2,9.1-9.4,14.2-13.7c10-8.4,20.8-16,29.9-25.3,8.6-8.9,15.2-19.4,19.2-31.1,7.9-23.1,6-49.1-3.5-71.4-1.1-2.7-2.4-5.3-3.8-7.9s-7-.4-5.2,3h0Z"/>
        <path class="cls-1" d="M131.5,2.4c20.3,22.1,32.2,51.7,32.9,81.8s-13.6,62.7-19.6,94.2-2.4,15.5-2.5,23.3,1,16.9,2.5,25.3,3.3,17.5,4.1,26.3.3,14.9-.9,22.3c-4.8,29-22.7,54.7-44.7,73.5s-54.8,34.8-84.5,47.3-7.4,3.1-11.1,4.6-1,3.6.8,2.9c30.4-12.6,61.2-25.5,87.7-45.4s43.6-41.9,52-70.6,3.3-14.1,3.8-21.3-.2-16.5-1.5-24.7-3.4-17.7-4.4-26.7-.9-17,0-25.4c3.8-32.8,19.4-63.1,21.2-96.3,1.6-30.2-8-60.9-26.4-84.8-2.3-2.9-4.6-5.8-7.1-8.5s-3.4.7-2.1,2.1h0Z"/>
      </g>
    </g>
  </g>
</svg>