<svg width="43" height="47" viewBox="0 0 43 47" fill="none" xmlns="http://www.w3.org/2000/svg">
<path fill-rule="evenodd" clip-rule="evenodd" d="M14.8583 8.37364C15.1943 8.00797 15.6499 7.80255 16.125 7.80255C16.6001 7.80255 17.0557 8.00797 17.3917 8.37364L29.9334 22.0274C30.2693 22.3932 30.458 22.8892 30.458 23.4064C30.458 23.9236 30.2693 24.4197 29.9334 24.7854L17.3917 38.4392C17.0538 38.7945 16.6012 38.9911 16.1315 38.9866C15.6617 38.9822 15.2123 38.7771 14.8801 38.4154C14.548 38.0538 14.3595 37.5645 14.3554 37.0531C14.3514 36.5417 14.5319 36.049 14.8583 35.6811L26.1333 23.4064L14.8583 11.1317C14.5224 10.7659 14.3337 10.2699 14.3337 9.75267C14.3337 9.23546 14.5224 8.73942 14.8583 8.37364Z" fill="black"/>
</svg>
